<?xml version="1.0" encoding="UTF-8"?>
<svg version="1.1" viewBox="0 0 512 512" xmlns="http://www.w3.org/2000/svg"><path d="m139.98 64.001h288c17.672 0 32 14.328 32 32v384c0 17.672-14.328 32-32 32h-288c-17.672 0-32-14.328-32-32v-384c0-17.672 14.328-32 32-32z" fill="#BD6428"/><path d="m147.98 480c-4.416 0-8-3.584-8-8v-368c0-4.416 3.584-8 8-8h272c4.416 0 8 3.584 8 8v288l-88 88h-192z" fill="#F5F6F6"/><path d="m203.98 96.001h-16v-16c0-8.84 7.16-16 16-16v32z" fill="#A35623"/><path d="m427.98 392h-80c-4.416 0-8 3.584-8 8v80l88-88z" fill="#CECECE"/><path d="m115.98 88.001c4.416 0 8 3.584 8 8v264c0 4.416-3.584 8-8 8s-8-3.584-8-8v-264c0-4.416 3.584-8 8-8z" fill="#D17F4D"/><g fill="#E9E9E9"><path d="m331.98 408v16c0 4.416-3.584 8-8 8s-8 3.584-8 8-3.584 8-8 8h-8c-4.416 0-8 3.584-8 8s-3.584 8-8 8h-144v8c0 4.416 3.584 8 8 8h192v-80c-4.416 0-8 3.584-8 8z"/><path d="m419.98 96.001h-232c0.128 2.4 0.128 4.8 0 7.2-0.44 8.824 6.352 16.336 15.176 16.776 0.28 0.016 0.552 0.024 0.824 0.024h192c8.84 0 16 7.16 16 16v24c0 8.84 7.16 16 16 16v-72c0-4.416-3.584-8-8-8z"/></g><path d="m336.7 45.121c-6.96-2.872-12.232-8.76-14.32-16-6.184-21.208-28.392-33.384-49.6-27.2-13.12 3.824-23.376 14.08-27.2 27.2-2.088 7.24-7.36 13.128-14.32 16l-17.2 6.88c-6.064 2.416-10.056 8.272-10.08 14.8v29.2c0 8.84 7.16 16 16 16h128c8.84 0 16-7.16 16-16v-29.2c-0.024-6.528-4.016-12.384-10.08-14.8l-17.2-6.88zm-52.72 10.88c-8.84 0-16-7.16-16-16s7.16-16 16-16 16 7.16 16 16-7.16 16-16 16z" fill="#9BA7AF"/><path d="m339.98 64.001c-4.416 0-8 3.584-8 8s-3.584 8-8 8h-16c-4.416 0-8 3.584-8 8s-3.584 8-8 8h-88c0 8.84 7.16 16 16 16h128c8.84 0 16-7.16 16-16v-32h-24z" fill="#72818B"/><path d="m253.02 40.001c-4.416 0.144-8.112-3.328-8.248-7.744-0.024-0.76 0.064-1.52 0.248-2.256 4.584-17.744 20.632-30.104 38.96-30 4.416 0 8 3.584 8 8s-3.584 8-8 8c-10.96-0.016-20.544 7.392-23.28 18-0.904 3.512-4.056 5.968-7.68 6z" fill="#AFBABF"/><path d="m427.98 80.001h-32c-8.84 0-16-7.16-16-16h-16v32h56c4.416 0 8 3.584 8 8v288l-88 88h-192c0 8.84 7.16 16 16 16h194.72c8.488 8e-3 16.632-3.36 22.64-9.36l53.28-53.28c6-6.008 9.368-14.152 9.36-22.64v-314.72c0-8.832-7.16-16-16-16z" fill="#A35623"/><g fill="#CECECE"><path d="m191.98 224h184c6.624 0 12 5.376 12 12s-5.376 12-12 12h-184c-6.624 0-12-5.376-12-12s5.376-12 12-12z"/><path d="m191.98 272h184c6.624 0 12 5.376 12 12s-5.376 12-12 12h-184c-6.624 0-12-5.376-12-12s5.376-12 12-12z"/><path d="m191.98 320h184c6.624 0 12 5.376 12 12s-5.376 12-12 12h-184c-6.624 0-12-5.376-12-12s5.376-12 12-12z"/><path d="m191.98 368h104c6.624 0 12 5.376 12 12s-5.376 12-12 12h-104c-6.624 0-12-5.376-12-12s5.376-12 12-12z"/><path d="m231.98 160h104c6.624 0 12 5.376 12 12s-5.376 12-12 12h-104c-6.624 0-12-5.376-12-12s5.376-12 12-12z"/></g><path d="m107.98 383.2v16.8c0 4.416 3.584 8 8 8s8-3.584 8-8v-8c0-4.416 3.584-8 8-8s8-3.584 8-8v-24l-32 31.2z" fill="#A35623"/><path d="m130.78 296c1.12 2.616 0.848 5.624-0.72 8-2.76 5.024-4.808 10.408-6.08 16l-67.28 68.72c-6.248 6.248-6.248 16.392 0 22.64s16.392 6.248 22.64 0l68.64-67.36c5.352-1.384 10.488-3.488 15.28-6.24 2.376-1.568 5.384-1.84 8-0.72-18.12-8.176-32.552-22.808-40.48-41.04z" fill="#595A66"/><path d="m131.98 299.44c8.464 16.888 22.632 30.24 40 37.68-2.616-1.12-5.624-0.848-8 0.72-5.024 2.784-10.408 4.856-16 6.16 0 0-21.52 21.28-26.24 25.76l10.24-70.32z" fill="#35363E"/><path d="m123.98 320-67.28 68.72c-6.248 6.248-6.248 16.392 0 22.64s16.392 6.248 22.64 0l68.64-67.36-24-24z" fill="#953F27"/><path d="m79.263 411.28 68.72-67.28-12.48-12.48-67.52 68.48c-3.488 2.76-4.08 7.832-1.32 11.32s7.832 4.08 11.32 1.32l1.28-1.36z" fill="#81301C"/><circle cx="211.98" cy="256" r="96" fill="#595A66"/><circle cx="211.98" cy="256" r="64" fill="#CDE3EA"/><path d="m211.98 336c-4.416 0-8-3.584-8-8s3.584-8 8-8c35.344 0 64-28.656 64-64 0-4.416 3.584-8 8-8s8 3.584 8 8c0 44.184-35.816 80-80 80z" fill="#6F707E"/><path d="m211.98 176c4.416 0 8 3.584 8 8s-3.584 8-8 8c-35.344 0-64 28.656-64 64 0 4.416-3.584 8-8 8s-8-3.584-8-8c0-44.184 35.816-80 80-80z" fill="#35363E"/><path d="m251.98 256c4.416 0 8-3.584 8-8 0-22.088-17.912-40-40-40-4.416 0-8 3.584-8 8s3.584 8 8 8c13.256 0 24 10.744 24 24 0 4.416 3.584 8 8 8z" fill="#F5F6F6"/><g fill="#9BA7AF"><path d="m191.98 248h83.44c-1.032-8.456-3.752-16.616-8-24h-75.44c-6.624 0-12 5.376-12 12 0 6.632 5.376 12 12 12z"/><path d="m179.98 284c0 6.624 5.376 12 12 12h69.92c5.648-7.064 9.744-15.24 12-24h-81.92c-6.624 0-12 5.376-12 12z"/></g><path d="m219.98 224c13.256 0 24 10.744 24 24h16c0-8.656-2.808-17.08-8-24h-32z" fill="#CECECE"/><path d="m147.98 344-8 8v24c8.84 0 16-7.16 16-16 0-4.416 3.584-8 8-8h48c-17.432-8e-3 -34.536-4.8-49.44-13.84-4.6 2.536-9.488 4.496-14.56 5.84z" fill="#E9E9E9"/></svg>
